<svg width="585" height="56" viewBox="0 0 585 56" fill="none" xmlns="http://www.w3.org/2000/svg">
<path fill-rule="evenodd" clip-rule="evenodd" d="M6.39999 6.4H185.6V32.6H6.39999V6.4ZM6.99999 7V32H185V7H6.99999Z" fill="#C9D1D9"/>
<path fill-rule="evenodd" clip-rule="evenodd" d="M184.4 6.4H361.6V32.6H184.4V6.4ZM185 7V32H361V7H185Z" fill="#C9D1D9"/>
<path fill-rule="evenodd" clip-rule="evenodd" d="M360.4 6.4H574.6V32.6H360.4V6.4ZM361 7V32H574V7H361Z" fill="#C9D1D9"/>
<path d="M77.2129 42.3232V45.1895H78.3799C78.9528 45.1895 79.3613 45.0902 79.6055 44.8916C79.8496 44.6898 79.9717 44.3594 79.9717 43.9004C79.9717 43.2949 79.8431 42.8815 79.5859 42.6602C79.3288 42.4355 78.9268 42.3232 78.3799 42.3232H77.2129ZM77.2129 39.5205V41.5225H78.3604C78.8356 41.5225 79.179 41.4313 79.3906 41.249C79.6055 41.0667 79.7129 40.8372 79.7129 40.5605C79.7129 40.1927 79.6071 39.9274 79.3955 39.7646C79.1872 39.6019 78.8421 39.5205 78.3604 39.5205H77.2129ZM76.2217 38.71H78.3799C79.1253 38.71 79.6999 38.8711 80.1035 39.1934C80.5072 39.5156 80.709 39.9714 80.709 40.5605C80.709 40.8763 80.6016 41.1628 80.3867 41.4199C80.1751 41.6771 79.8561 41.8382 79.4297 41.9033C79.9082 41.9749 80.2826 42.18 80.5527 42.5186C80.8262 42.8538 80.9629 43.347 80.9629 43.998C80.9629 44.6589 80.7464 45.1585 80.3135 45.4971C79.8805 45.8324 79.236 46 78.3799 46H76.2217V38.71Z" fill="#C9D1D9"/>
<path d="M84.9473 44.0225C84.9473 44.4261 85.0205 44.7305 85.167 44.9355C85.3167 45.1406 85.5365 45.2432 85.8262 45.2432H86.876V46H85.7383C85.2012 46 84.7845 45.8291 84.4883 45.4873C84.1953 45.1423 84.0488 44.654 84.0488 44.0225V39.0762H82.6084V38.373H84.9473V44.0225Z" fill="#C9D1D9"/>
<path d="M90.4697 41.1611C90.014 41.1611 89.6689 41.3385 89.4346 41.6934C89.2002 42.0482 89.083 42.5739 89.083 43.2705C89.083 43.9639 89.2002 44.4896 89.4346 44.8477C89.6689 45.2025 90.014 45.3799 90.4697 45.3799C90.9287 45.3799 91.2754 45.2025 91.5098 44.8477C91.7441 44.4896 91.8613 43.9639 91.8613 43.2705C91.8613 42.5739 91.7441 42.0482 91.5098 41.6934C91.2754 41.3385 90.9287 41.1611 90.4697 41.1611ZM90.4697 40.3994C91.2282 40.3994 91.8076 40.6452 92.208 41.1367C92.6117 41.6283 92.8135 42.3395 92.8135 43.2705C92.8135 44.2048 92.6133 44.9176 92.2129 45.4092C91.8125 45.8975 91.2314 46.1416 90.4697 46.1416C89.7113 46.1416 89.1318 45.8975 88.7314 45.4092C88.3311 44.9176 88.1309 44.2048 88.1309 43.2705C88.1309 42.3395 88.3311 41.6283 88.7314 41.1367C89.1318 40.6452 89.7113 40.3994 90.4697 40.3994Z" fill="#C9D1D9"/>
<path d="M98.668 45.7217C98.4271 45.8617 98.1781 45.9658 97.9209 46.0342C97.667 46.1058 97.4066 46.1416 97.1396 46.1416C96.2933 46.1416 95.6309 45.8877 95.1523 45.3799C94.6771 44.8721 94.4395 44.1689 94.4395 43.2705C94.4395 42.3721 94.6771 41.6689 95.1523 41.1611C95.6309 40.6533 96.2933 40.3994 97.1396 40.3994C97.4033 40.3994 97.6605 40.4336 97.9111 40.502C98.1618 40.5703 98.4141 40.6761 98.668 40.8193V41.7617C98.4303 41.5501 98.1911 41.3971 97.9502 41.3027C97.7126 41.2083 97.4424 41.1611 97.1396 41.1611C96.5765 41.1611 96.1436 41.3434 95.8408 41.708C95.5381 42.0726 95.3867 42.5934 95.3867 43.2705C95.3867 43.9443 95.5381 44.4652 95.8408 44.833C96.1468 45.1976 96.5798 45.3799 97.1396 45.3799C97.4521 45.3799 97.7321 45.3327 97.9795 45.2383C98.2269 45.1406 98.4564 44.9909 98.668 44.7891V45.7217Z" fill="#C9D1D9"/>
<path d="M100.665 38.4023H101.593V42.8018L103.951 40.5312H105.045L102.892 42.5918L105.382 46H104.283L102.262 43.1777L101.593 43.8076V46H100.665V38.4023Z" fill="#C9D1D9"/>
<path d="M112.882 45.1748H114.415V39.667L112.579 40.5508V39.6035L114.405 38.7344H115.392V45.1748H116.905V46H112.882V45.1748Z" fill="#C9D1D9"/>
<path d="M254.213 42.3232V45.1895H255.38C255.953 45.1895 256.361 45.0902 256.605 44.8916C256.85 44.6898 256.972 44.3594 256.972 43.9004C256.972 43.2949 256.843 42.8815 256.586 42.6602C256.329 42.4355 255.927 42.3232 255.38 42.3232H254.213ZM254.213 39.5205V41.5225H255.36C255.836 41.5225 256.179 41.4313 256.391 41.249C256.605 41.0667 256.713 40.8372 256.713 40.5605C256.713 40.1927 256.607 39.9274 256.396 39.7646C256.187 39.6019 255.842 39.5205 255.36 39.5205H254.213ZM253.222 38.71H255.38C256.125 38.71 256.7 38.8711 257.104 39.1934C257.507 39.5156 257.709 39.9714 257.709 40.5605C257.709 40.8763 257.602 41.1628 257.387 41.4199C257.175 41.6771 256.856 41.8382 256.43 41.9033C256.908 41.9749 257.283 42.18 257.553 42.5186C257.826 42.8538 257.963 43.347 257.963 43.998C257.963 44.6589 257.746 45.1585 257.313 45.4971C256.881 45.8324 256.236 46 255.38 46H253.222V38.71Z" fill="#C9D1D9"/>
<path d="M261.947 44.0225C261.947 44.4261 262.021 44.7305 262.167 44.9355C262.317 45.1406 262.536 45.2432 262.826 45.2432H263.876V46H262.738C262.201 46 261.785 45.8291 261.488 45.4873C261.195 45.1423 261.049 44.654 261.049 44.0225V39.0762H259.608V38.373H261.947V44.0225Z" fill="#C9D1D9"/>
<path d="M267.47 41.1611C267.014 41.1611 266.669 41.3385 266.435 41.6934C266.2 42.0482 266.083 42.5739 266.083 43.2705C266.083 43.9639 266.2 44.4896 266.435 44.8477C266.669 45.2025 267.014 45.3799 267.47 45.3799C267.929 45.3799 268.275 45.2025 268.51 44.8477C268.744 44.4896 268.861 43.9639 268.861 43.2705C268.861 42.5739 268.744 42.0482 268.51 41.6934C268.275 41.3385 267.929 41.1611 267.47 41.1611ZM267.47 40.3994C268.228 40.3994 268.808 40.6452 269.208 41.1367C269.612 41.6283 269.813 42.3395 269.813 43.2705C269.813 44.2048 269.613 44.9176 269.213 45.4092C268.812 45.8975 268.231 46.1416 267.47 46.1416C266.711 46.1416 266.132 45.8975 265.731 45.4092C265.331 44.9176 265.131 44.2048 265.131 43.2705C265.131 42.3395 265.331 41.6283 265.731 41.1367C266.132 40.6452 266.711 40.3994 267.47 40.3994Z" fill="#C9D1D9"/>
<path d="M275.668 45.7217C275.427 45.8617 275.178 45.9658 274.921 46.0342C274.667 46.1058 274.407 46.1416 274.14 46.1416C273.293 46.1416 272.631 45.8877 272.152 45.3799C271.677 44.8721 271.439 44.1689 271.439 43.2705C271.439 42.3721 271.677 41.6689 272.152 41.1611C272.631 40.6533 273.293 40.3994 274.14 40.3994C274.403 40.3994 274.66 40.4336 274.911 40.502C275.162 40.5703 275.414 40.6761 275.668 40.8193V41.7617C275.43 41.5501 275.191 41.3971 274.95 41.3027C274.713 41.2083 274.442 41.1611 274.14 41.1611C273.576 41.1611 273.144 41.3434 272.841 41.708C272.538 42.0726 272.387 42.5934 272.387 43.2705C272.387 43.9443 272.538 44.4652 272.841 44.833C273.147 45.1976 273.58 45.3799 274.14 45.3799C274.452 45.3799 274.732 45.3327 274.979 45.2383C275.227 45.1406 275.456 44.9909 275.668 44.7891V45.7217Z" fill="#C9D1D9"/>
<path d="M277.665 38.4023H278.593V42.8018L280.951 40.5312H282.045L279.892 42.5918L282.382 46H281.283L279.262 43.1777L278.593 43.8076V46H277.665V38.4023Z" fill="#C9D1D9"/>
<path d="M290.385 45.1699H293.734V46H289.306V45.1699C289.914 44.5286 290.447 43.9622 290.902 43.4707C291.358 42.9792 291.672 42.6325 291.845 42.4307C292.17 42.0335 292.39 41.7129 292.504 41.4688C292.618 41.2214 292.675 40.9691 292.675 40.7119C292.675 40.305 292.554 39.986 292.313 39.7549C292.076 39.5238 291.749 39.4082 291.332 39.4082C291.036 39.4082 290.725 39.4619 290.399 39.5693C290.074 39.6768 289.729 39.8395 289.364 40.0576V39.0615C289.7 38.902 290.028 38.7816 290.351 38.7002C290.676 38.6188 290.997 38.5781 291.312 38.5781C292.025 38.5781 292.598 38.7686 293.031 39.1494C293.467 39.527 293.686 40.0234 293.686 40.6387C293.686 40.9512 293.612 41.2637 293.466 41.5762C293.323 41.8887 293.088 42.2337 292.763 42.6113C292.58 42.8229 292.315 43.1159 291.967 43.4902C291.622 43.8646 291.094 44.4245 290.385 45.1699Z" fill="#C9D1D9"/>
<path d="M455.213 42.3232V45.1895H456.38C456.953 45.1895 457.361 45.0902 457.605 44.8916C457.85 44.6898 457.972 44.3594 457.972 43.9004C457.972 43.2949 457.843 42.8815 457.586 42.6602C457.329 42.4355 456.927 42.3232 456.38 42.3232H455.213ZM455.213 39.5205V41.5225H456.36C456.836 41.5225 457.179 41.4313 457.391 41.249C457.605 41.0667 457.713 40.8372 457.713 40.5605C457.713 40.1927 457.607 39.9274 457.396 39.7646C457.187 39.6019 456.842 39.5205 456.36 39.5205H455.213ZM454.222 38.71H456.38C457.125 38.71 457.7 38.8711 458.104 39.1934C458.507 39.5156 458.709 39.9714 458.709 40.5605C458.709 40.8763 458.602 41.1628 458.387 41.4199C458.175 41.6771 457.856 41.8382 457.43 41.9033C457.908 41.9749 458.283 42.18 458.553 42.5186C458.826 42.8538 458.963 43.347 458.963 43.998C458.963 44.6589 458.746 45.1585 458.313 45.4971C457.881 45.8324 457.236 46 456.38 46H454.222V38.71Z" fill="#C9D1D9"/>
<path d="M462.947 44.0225C462.947 44.4261 463.021 44.7305 463.167 44.9355C463.317 45.1406 463.536 45.2432 463.826 45.2432H464.876V46H463.738C463.201 46 462.785 45.8291 462.488 45.4873C462.195 45.1423 462.049 44.654 462.049 44.0225V39.0762H460.608V38.373H462.947V44.0225Z" fill="#C9D1D9"/>
<path d="M468.47 41.1611C468.014 41.1611 467.669 41.3385 467.435 41.6934C467.2 42.0482 467.083 42.5739 467.083 43.2705C467.083 43.9639 467.2 44.4896 467.435 44.8477C467.669 45.2025 468.014 45.3799 468.47 45.3799C468.929 45.3799 469.275 45.2025 469.51 44.8477C469.744 44.4896 469.861 43.9639 469.861 43.2705C469.861 42.5739 469.744 42.0482 469.51 41.6934C469.275 41.3385 468.929 41.1611 468.47 41.1611ZM468.47 40.3994C469.228 40.3994 469.808 40.6452 470.208 41.1367C470.612 41.6283 470.813 42.3395 470.813 43.2705C470.813 44.2048 470.613 44.9176 470.213 45.4092C469.812 45.8975 469.231 46.1416 468.47 46.1416C467.711 46.1416 467.132 45.8975 466.731 45.4092C466.331 44.9176 466.131 44.2048 466.131 43.2705C466.131 42.3395 466.331 41.6283 466.731 41.1367C467.132 40.6452 467.711 40.3994 468.47 40.3994Z" fill="#C9D1D9"/>
<path d="M476.668 45.7217C476.427 45.8617 476.178 45.9658 475.921 46.0342C475.667 46.1058 475.407 46.1416 475.14 46.1416C474.293 46.1416 473.631 45.8877 473.152 45.3799C472.677 44.8721 472.439 44.1689 472.439 43.2705C472.439 42.3721 472.677 41.6689 473.152 41.1611C473.631 40.6533 474.293 40.3994 475.14 40.3994C475.403 40.3994 475.66 40.4336 475.911 40.502C476.162 40.5703 476.414 40.6761 476.668 40.8193V41.7617C476.43 41.5501 476.191 41.3971 475.95 41.3027C475.713 41.2083 475.442 41.1611 475.14 41.1611C474.576 41.1611 474.144 41.3434 473.841 41.708C473.538 42.0726 473.387 42.5934 473.387 43.2705C473.387 43.9443 473.538 44.4652 473.841 44.833C474.147 45.1976 474.58 45.3799 475.14 45.3799C475.452 45.3799 475.732 45.3327 475.979 45.2383C476.227 45.1406 476.456 44.9909 476.668 44.7891V45.7217Z" fill="#C9D1D9"/>
<path d="M478.665 38.4023H479.593V42.8018L481.951 40.5312H483.045L480.892 42.5918L483.382 46H482.283L480.262 43.1777L479.593 43.8076V46H478.665V38.4023Z" fill="#C9D1D9"/>
<path d="M493.353 42.0986C493.831 42.2256 494.197 42.4518 494.451 42.7773C494.705 43.0996 494.832 43.5033 494.832 43.9883C494.832 44.6589 494.606 45.1862 494.153 45.5703C493.704 45.9512 493.081 46.1416 492.283 46.1416C491.948 46.1416 491.606 46.1107 491.258 46.0488C490.91 45.987 490.568 45.8975 490.232 45.7803V44.7988C490.564 44.9714 490.892 45.0999 491.214 45.1846C491.536 45.2692 491.857 45.3115 492.176 45.3115C492.716 45.3115 493.131 45.1895 493.421 44.9453C493.711 44.7012 493.855 44.3496 493.855 43.8906C493.855 43.4674 493.711 43.1322 493.421 42.8848C493.131 42.6341 492.739 42.5088 492.244 42.5088H491.492V41.6982H492.244C492.697 41.6982 493.05 41.599 493.304 41.4004C493.558 41.2018 493.685 40.9251 493.685 40.5703C493.685 40.196 493.566 39.9095 493.328 39.7109C493.094 39.5091 492.758 39.4082 492.322 39.4082C492.033 39.4082 491.733 39.4408 491.424 39.5059C491.115 39.571 490.791 39.6686 490.452 39.7988V38.8906C490.846 38.7865 491.196 38.7083 491.502 38.6562C491.811 38.6042 492.085 38.5781 492.322 38.5781C493.032 38.5781 493.598 38.7572 494.021 39.1152C494.448 39.4701 494.661 39.9421 494.661 40.5312C494.661 40.9316 494.549 41.2653 494.324 41.5322C494.103 41.7992 493.779 41.988 493.353 42.0986Z" fill="#C9D1D9"/>
<path d="M16.7277 12.9058H18.4855L21.1425 17.4665L23.8481 12.9058H25.6059L21.9849 18.5924L25.8651 25H24.1073L21.1425 19.7913L17.9427 25H16.1768L20.2271 18.5924L16.7277 12.9058Z" fill="#C9D1D9"/>
<path d="M26.7238 12.9058H28.4816L31.1386 17.4665L33.8442 12.9058H35.602L31.9811 18.5924L35.8612 25H34.1034L31.1386 19.7913L27.9389 25H26.1729L30.2232 18.5924L26.7238 12.9058Z" fill="#C9D1D9"/>
<path d="M36.7199 12.9058H38.4777L41.1347 17.4665L43.8403 12.9058H45.5981L41.9772 18.5924L45.8574 25H44.0995L41.1347 19.7913L37.935 25H36.1691L40.2194 18.5924L36.7199 12.9058Z" fill="#C9D1D9"/>
<path d="M46.716 12.9058H48.4739L51.1308 17.4665L53.8364 12.9058H55.5943L51.9733 18.5924L55.8535 25H54.0957L51.1308 19.7913L47.9311 25H46.1652L50.2155 18.5924L46.716 12.9058Z" fill="#C9D1D9"/>
<path d="M56.7122 12.9058H58.47L61.127 17.4665L63.8326 12.9058H65.5904L61.9694 18.5924L65.8496 25H64.0918L61.127 19.7913L57.9272 25H56.1613L60.2116 18.5924L56.7122 12.9058Z" fill="#C9D1D9"/>
<path d="M66.7083 12.9058H68.4661L71.1231 17.4665L73.8287 12.9058H75.5865L71.9656 18.5924L75.8457 25H74.0879L71.1231 19.7913L67.9234 25H66.1574L70.2077 18.5924L66.7083 12.9058Z" fill="#C9D1D9"/>
<path d="M76.7044 12.9058H78.4622L81.1192 17.4665L83.8248 12.9058H85.5826L81.9617 18.5924L85.8419 25H84.084L81.1192 19.7913L77.9195 25H76.1536L80.2038 18.5924L76.7044 12.9058Z" fill="#C9D1D9"/>
<path d="M86.7005 12.9058H88.4583L91.1153 17.4665L93.8209 12.9058H95.5788L91.9578 18.5924L95.838 25H94.0802L91.1153 19.7913L87.9156 25H86.1497L90.2 18.5924L86.7005 12.9058Z" fill="#C9D1D9"/>
<path d="M96.6966 12.9058H98.4545L101.111 17.4665L103.817 12.9058H105.575L101.954 18.5924L105.834 25H104.076L101.111 19.7913L97.9117 25H96.1458L100.196 18.5924L96.6966 12.9058Z" fill="#C9D1D9"/>
<path d="M106.693 12.9058H108.451L111.108 17.4665L113.813 12.9058H115.571L111.95 18.5924L115.83 25H114.072L111.108 19.7913L107.908 25H106.142L110.192 18.5924L106.693 12.9058Z" fill="#C9D1D9"/>
<path d="M116.689 12.9058H118.447L121.104 17.4665L123.809 12.9058H125.567L121.946 18.5924L125.826 25H124.069L121.104 19.7913L117.904 25H116.138L120.188 18.5924L116.689 12.9058Z" fill="#C9D1D9"/>
<path d="M126.685 12.9058H128.443L131.1 17.4665L133.805 12.9058H135.563L131.942 18.5924L135.822 25H134.065L131.1 19.7913L127.9 25H126.134L130.184 18.5924L126.685 12.9058Z" fill="#C9D1D9"/>
<path d="M140.974 14.3477L139.249 20.5366H142.7L140.974 14.3477ZM139.986 12.9058H141.971L145.673 25H143.98L143.089 21.8489H138.852L137.977 25H136.284L139.986 12.9058Z" fill="#C9D1D9"/>
<path d="M150.971 14.3477L149.245 20.5366H152.696L150.971 14.3477ZM149.982 12.9058H151.967L155.669 25H153.976L153.085 21.8489H148.848L147.973 25H146.28L149.982 12.9058Z" fill="#C9D1D9"/>
<path d="M160.967 14.3477L159.241 20.5366H162.692L160.967 14.3477ZM159.978 12.9058H161.963L165.665 25H163.972L163.081 21.8489H158.844L157.969 25H156.276L159.978 12.9058Z" fill="#C9D1D9"/>
<path d="M170.963 14.3477L169.237 20.5366H172.688L170.963 14.3477ZM169.975 12.9058H171.959L175.661 25H173.968L173.077 21.8489H168.84L167.966 25H166.273L169.975 12.9058Z" fill="#C9D1D9"/>
<path d="M198.021 14.3477L196.296 20.5366H199.746L198.021 14.3477ZM197.033 12.9058H199.017L202.719 25H201.026L200.135 21.8489H195.899L195.024 25H193.331L197.033 12.9058Z" fill="#FF7B72"/>
<path d="M208.017 14.3477L206.292 20.5366H209.743L208.017 14.3477ZM207.029 12.9058H209.013L212.715 25H211.022L210.131 21.8489H205.895L205.02 25H203.327L207.029 12.9058Z" fill="#FF7B72"/>
<path d="M218.013 14.3477L216.288 20.5366H219.739L218.013 14.3477ZM217.025 12.9058H219.01L222.712 25H221.019L220.127 21.8489H215.891L215.016 25H213.323L217.025 12.9058Z" fill="#FF7B72"/>
<path d="M228.009 14.3477L226.284 20.5366H229.735L228.009 14.3477ZM227.021 12.9058H229.006L232.708 25H231.015L230.124 21.8489H225.887L225.012 25H223.319L227.021 12.9058Z" fill="#FF7B72"/>
<path d="M238.005 14.3477L236.28 20.5366H239.731L238.005 14.3477ZM237.017 12.9058H239.002L242.704 25H241.011L240.12 21.8489H235.883L235.008 25H233.315L237.017 12.9058Z" fill="#FF7B72"/>
<path d="M248.002 14.3477L246.276 20.5366H249.727L248.002 14.3477ZM247.013 12.9058H248.998L252.7 25H251.007L250.116 21.8489H245.879L245.004 25H243.311L247.013 12.9058Z" fill="#FF7B72"/>
<path d="M257.998 14.3477L256.272 20.5366H259.723L257.998 14.3477ZM257.009 12.9058H258.994L262.696 25H261.003L260.112 21.8489H255.875L255 25H253.307L257.009 12.9058Z" fill="#FF7B72"/>
<path d="M267.994 14.3477L266.268 20.5366H269.719L267.994 14.3477ZM267.006 12.9058H268.99L272.692 25H270.999L270.108 21.8489H265.871L264.997 25H263.304L267.006 12.9058Z" fill="#FF7B72"/>
<path d="M277.99 14.3477L276.265 20.5366H279.715L277.99 14.3477ZM277.002 12.9058H278.986L282.688 25H280.995L280.104 21.8489H275.868L274.993 25H273.3L277.002 12.9058Z" fill="#FF7B72"/>
<path d="M287.986 14.3477L286.261 20.5366H289.712L287.986 14.3477ZM286.998 12.9058H288.982L292.684 25H290.991L290.1 21.8489H285.864L284.989 25H283.296L286.998 12.9058Z" fill="#FF7B72"/>
<path d="M297.982 14.3477L296.257 20.5366H299.708L297.982 14.3477ZM296.994 12.9058H298.979L302.681 25H300.988L300.096 21.8489H295.86L294.985 25H293.292L296.994 12.9058Z" fill="#FF7B72"/>
<path d="M307.978 14.3477L306.253 20.5366H309.704L307.978 14.3477ZM306.99 12.9058H308.975L312.677 25H310.984L310.093 21.8489H305.856L304.981 25H303.288L306.99 12.9058Z" fill="#FF7B72"/>
<path d="M317.974 14.3477L316.249 20.5366H319.7L317.974 14.3477ZM316.986 12.9058H318.971L322.673 25H320.98L320.089 21.8489H315.852L314.977 25H313.284L316.986 12.9058Z" fill="#FF7B72"/>
<path d="M327.971 14.3477L326.245 20.5366H329.696L327.971 14.3477ZM326.982 12.9058H328.967L332.669 25H330.976L330.085 21.8489H325.848L324.973 25H323.28L326.982 12.9058Z" fill="#FF7B72"/>
<path d="M337.967 14.3477L336.241 20.5366H339.692L337.967 14.3477ZM336.978 12.9058H338.963L342.665 25H340.972L340.081 21.8489H335.844L334.969 25H333.276L336.978 12.9058Z" fill="#FF7B72"/>
<path d="M347.963 14.3477L346.237 20.5366H349.688L347.963 14.3477ZM346.975 12.9058H348.959L352.661 25H350.968L350.077 21.8489H345.84L344.966 25H343.273L346.975 12.9058Z" fill="#FF7B72"/>
<path d="M370.149 12.9058H371.793V17.5394H376.273V12.9058H377.917V25H376.273V18.9165H371.793V25H370.149V12.9058Z" fill="#C9D1D9"/>
<path d="M379.416 12.9058H388.642V14.2829H384.859V25H383.215V14.2829H379.416V12.9058Z" fill="#C9D1D9"/>
<path d="M392.02 18.9003V23.6553H393.956C394.907 23.6553 395.584 23.4906 395.989 23.1612C396.394 22.8263 396.597 22.2782 396.597 21.5167C396.597 20.5123 396.384 19.8264 395.957 19.4592C395.53 19.0866 394.863 18.9003 393.956 18.9003H392.02ZM392.02 14.2505V17.5718H393.924C394.712 17.5718 395.282 17.4205 395.633 17.1181C395.989 16.8157 396.168 16.435 396.168 15.9759C396.168 15.3657 395.992 14.9256 395.641 14.6555C395.295 14.3855 394.723 14.2505 393.924 14.2505H392.02ZM390.376 12.9058H393.956C395.193 12.9058 396.146 13.1731 396.816 13.7078C397.485 14.2424 397.82 14.9985 397.82 15.9759C397.82 16.4998 397.642 16.975 397.286 17.4016C396.934 17.8283 396.405 18.0956 395.698 18.2036C396.492 18.3224 397.113 18.6626 397.561 19.2243C398.015 19.7805 398.241 20.5987 398.241 21.6788C398.241 22.775 397.882 23.604 397.164 24.1656C396.446 24.7219 395.376 25 393.956 25H390.376V12.9058Z" fill="#C9D1D9"/>
<path d="M407.387 25.4131V26.5796H406.869C405.524 26.5796 404.622 26.3798 404.163 25.9802C403.709 25.5805 403.482 24.784 403.482 23.5905V21.9704C403.482 21.3817 403.315 20.8741 402.98 20.4475C402.651 20.0208 402.138 19.8075 401.441 19.8075H400.453V18.6491H401.441C402.203 18.6491 402.732 18.4682 403.029 18.1064C403.331 17.7446 403.482 17.2126 403.482 16.5106V14.4044C403.482 13.2109 403.709 12.4171 404.163 12.0229C404.622 11.6232 405.524 11.4234 406.869 11.4234H407.387V12.5818H406.82C406.064 12.5818 405.57 12.7006 405.338 12.9382C405.111 13.1704 404.997 13.67 404.997 14.4368V16.6078C404.997 17.5583 404.811 18.1982 404.438 18.5276C404.066 18.8517 403.339 19.0866 402.259 19.2324C403.307 19.3566 404.025 19.5969 404.414 19.9533C404.803 20.3044 404.997 20.9416 404.997 21.8651V23.5581C404.997 24.3303 405.111 24.8326 405.338 25.0648C405.57 25.297 406.064 25.4131 406.82 25.4131H407.387Z" fill="#C9D1D9"/>
<path d="M417.634 12.3955V13.6349H415.941C415.407 13.6349 415.034 13.7456 414.823 13.967C414.618 14.183 414.515 14.5691 414.515 15.1254V15.9273H417.634V17.0857H414.515V25H413.025V17.0857H410.603V15.9273H413.025V15.2955C413.025 14.3018 413.252 13.5701 413.705 13.1002C414.164 12.6304 414.877 12.3955 415.844 12.3955H417.634Z" fill="#C9D1D9"/>
<path d="M424.973 14.3963L421.158 20.7877H424.973V14.3963ZM424.706 12.9058H426.602V20.7877H428.214V22.1162H426.602V25H424.973V22.1162H419.846V20.569L424.706 12.9058Z" fill="#C9D1D9"/>
<path d="M430.927 12.3955H432.466V19.6941L436.379 15.9273H438.193L434.621 19.3458L438.752 25H436.93L433.576 20.3179L432.466 21.3628V25H430.927V12.3955Z" fill="#C9D1D9"/>
<path d="M448.084 19.7184V20.4475H441.628V20.4961C441.585 21.7328 441.82 22.6211 442.333 23.1612C442.851 23.7012 443.58 23.9712 444.52 23.9712C444.995 23.9712 445.492 23.8956 446.011 23.7444C446.529 23.5932 447.083 23.3637 447.671 23.0559V24.5383C447.104 24.7705 446.556 24.9433 446.027 25.0567C445.503 25.1755 444.995 25.2349 444.504 25.2349C443.094 25.2349 441.993 24.8137 441.199 23.9712C440.405 23.1234 440.008 21.9569 440.008 20.4718C440.008 19.0245 440.397 17.8688 441.174 17.0047C441.952 16.1407 442.989 15.7086 444.285 15.7086C445.441 15.7086 446.351 16.1002 447.015 16.8832C447.685 17.6663 448.041 18.6113 448.084 19.7184ZM446.594 19.281C446.529 18.6545 446.299 18.1145 445.905 17.6609C445.516 17.2018 444.955 16.9723 444.22 16.9723C443.502 16.9723 442.911 17.2099 442.446 17.6852C441.982 18.1604 441.728 18.695 441.685 19.2891L446.594 19.281Z" fill="#C9D1D9"/>
<path d="M458.923 26.5391V27.9162H449.008V26.5391H458.923Z" fill="#C9D1D9"/>
<path d="M467.615 12.3955V13.6349H465.922C465.387 13.6349 465.015 13.7456 464.804 13.967C464.599 14.183 464.496 14.5691 464.496 15.1254V15.9273H467.615V17.0857H464.496V25H463.006V17.0857H460.584V15.9273H463.006V15.2955C463.006 14.3018 463.232 13.5701 463.686 13.1002C464.145 12.6304 464.858 12.3955 465.825 12.3955H467.615Z" fill="#C9D1D9"/>
<path d="M471.187 23.631H473.731V14.4935L470.685 15.9597V14.3882L473.715 12.9463H475.351V23.631H477.862V25H471.187V23.631Z" fill="#C9D1D9"/>
<path d="M484.95 14.3963L481.135 20.7877H484.95V14.3963ZM484.683 12.9058H486.578V20.7877H488.19V22.1162H486.578V25H484.95V22.1162H479.822V20.569L484.683 12.9058Z" fill="#C9D1D9"/>
<path d="M495.943 20.3908C495.943 19.2729 495.759 18.425 495.392 17.8472C495.03 17.2639 494.501 16.9723 493.804 16.9723C493.075 16.9723 492.519 17.2639 492.135 17.8472C491.752 18.425 491.56 19.2729 491.56 20.3908C491.56 21.5086 491.752 22.3619 492.135 22.9506C492.524 23.5338 493.086 23.8254 493.82 23.8254C494.506 23.8254 495.03 23.5311 495.392 22.9424C495.759 22.3538 495.943 21.5032 495.943 20.3908ZM497.433 24.4168C497.433 25.7777 497.112 26.8091 496.469 27.5112C495.826 28.2132 494.881 28.5643 493.634 28.5643C493.223 28.5643 492.794 28.5265 492.346 28.4508C491.898 28.3752 491.449 28.2645 491.001 28.1187V26.6444C491.53 26.8928 492.011 27.0764 492.443 27.1953C492.875 27.3141 493.272 27.3735 493.634 27.3735C494.439 27.3735 495.024 27.1548 495.392 26.7173C495.759 26.2799 495.943 25.5859 495.943 24.6355V24.5707V23.5581C495.705 24.0657 495.381 24.4438 494.97 24.6922C494.56 24.9406 494.061 25.0648 493.472 25.0648C492.413 25.0648 491.568 24.6409 490.936 23.793C490.305 22.9451 489.989 21.8111 489.989 20.3908C489.989 18.9651 490.305 17.8283 490.936 16.9804C491.568 16.1326 492.413 15.7086 493.472 15.7086C494.055 15.7086 494.549 15.8247 494.954 16.057C495.359 16.2892 495.689 16.6483 495.943 17.1343V15.9597H497.433V24.4168Z" fill="#C9D1D9"/>
<path d="M501.329 25.4131C502.086 25.4131 502.577 25.297 502.804 25.0648C503.036 24.8326 503.152 24.3303 503.152 23.5581V21.8651C503.152 20.9416 503.347 20.3044 503.735 19.9533C504.124 19.5969 504.842 19.3566 505.89 19.2324C504.81 19.0866 504.084 18.8517 503.711 18.5276C503.338 18.1982 503.152 17.5583 503.152 16.6078V14.4368C503.152 13.67 503.036 13.1704 502.804 12.9382C502.577 12.7006 502.086 12.5818 501.329 12.5818H500.762V11.4234H501.281C502.626 11.4234 503.525 11.6232 503.978 12.0229C504.437 12.4171 504.667 13.2109 504.667 14.4044V16.5106C504.667 17.2126 504.815 17.7446 505.112 18.1064C505.415 18.4682 505.947 18.6491 506.708 18.6491H507.697V19.8075H506.708C506.012 19.8075 505.496 20.0208 505.161 20.4475C504.832 20.8741 504.667 21.3817 504.667 21.9704V23.5905C504.667 24.784 504.437 25.5805 503.978 25.9802C503.525 26.3798 502.626 26.5796 501.281 26.5796H500.762V25.4131H501.329Z" fill="#C9D1D9"/>
<path d="M509.681 12.9058H511.439L514.096 17.4665L516.802 12.9058H518.559L514.938 18.5924L518.819 25H517.061L514.096 19.7913L510.896 25H509.13L513.181 18.5924L509.681 12.9058Z" fill="#C9D1D9"/>
<path d="M519.677 12.9058H521.435L524.092 17.4665L526.798 12.9058H528.556L524.935 18.5924L528.815 25H527.057L524.092 19.7913L520.892 25H519.126L523.177 18.5924L519.677 12.9058Z" fill="#C9D1D9"/>
<path d="M529.673 12.9058H531.431L534.088 17.4665L536.794 12.9058H538.552L534.931 18.5924L538.811 25H537.053L534.088 19.7913L530.889 25H529.123L533.173 18.5924L529.673 12.9058Z" fill="#C9D1D9"/>
<path d="M539.67 12.9058H541.427L544.084 17.4665L546.79 12.9058H548.548L544.927 18.5924L548.807 25H547.049L544.084 19.7913L540.885 25H539.119L543.169 18.5924L539.67 12.9058Z" fill="#C9D1D9"/>
<path d="M549.666 12.9058H551.423L554.08 17.4665L556.786 12.9058H558.544L554.923 18.5924L558.803 25H557.045L554.08 19.7913L550.881 25H549.115L553.165 18.5924L549.666 12.9058Z" fill="#C9D1D9"/>
<path d="M559.662 12.9058H561.42L564.077 17.4665L566.782 12.9058H568.54L564.919 18.5924L568.799 25H567.041L564.077 19.7913L560.877 25H559.111L563.161 18.5924L559.662 12.9058Z" fill="#C9D1D9"/>
</svg>
