<svg width="573" height="56" viewBox="0 0 573 56" fill="none" xmlns="http://www.w3.org/2000/svg">
<rect x="6.75" y="6.75" width="139.5" height="25.5" stroke="#25291F" stroke-width="0.5"/>
<path d="M16.5571 13H18.3348L21.0219 17.5251L23.7581 13H25.5358L21.8739 18.6423L25.798 25H24.0202L21.0219 19.8319L17.7859 25H16L20.0961 18.6423L16.5571 13Z" fill="#25291F"/>
<path d="M26.6664 13H28.4441L31.1311 17.5251L33.8674 13H35.6451L31.9831 18.6423L35.9072 25H34.1295L31.1311 19.8319L27.8952 25H26.1093L30.2054 18.6423L26.6664 13Z" fill="#25291F"/>
<path d="M36.7756 13H38.5534L41.2404 17.5251L43.9766 13H45.7544L42.0924 18.6423L46.0165 25H44.2388L41.2404 19.8319L38.0045 25H36.2186L40.3147 18.6423L36.7756 13Z" fill="#25291F"/>
<path d="M46.8849 13H48.6626L51.3497 17.5251L54.0859 13H55.8636L52.2017 18.6423L56.1258 25H54.3481L51.3497 19.8319L48.1137 25H46.3278L50.424 18.6423L46.8849 13Z" fill="#25291F"/>
<path d="M56.9942 13H58.7719L61.459 17.5251L64.1952 13H65.9729L62.311 18.6423L66.2351 25H64.4573L61.459 19.8319L58.223 25H56.4371L60.5332 18.6423L56.9942 13Z" fill="#25291F"/>
<path d="M67.1035 13H68.8812L71.5682 17.5251L74.3045 13H76.0822L72.4202 18.6423L76.3443 25H74.5666L71.5682 19.8319L68.3323 25H66.5464L70.6425 18.6423L67.1035 13Z" fill="#25291F"/>
<path d="M77.2127 13H78.9905L81.6775 17.5251L84.4137 13H86.1915L82.5295 18.6423L86.4536 25H84.6759L81.6775 19.8319L78.4416 25H76.6557L80.7518 18.6423L77.2127 13Z" fill="#25291F"/>
<path d="M87.322 13H89.0997L91.7868 17.5251L94.523 13H96.3007L92.6388 18.6423L96.5629 25H94.7852L91.7868 19.8319L88.5508 25H86.7649L90.8611 18.6423L87.322 13Z" fill="#25291F"/>
<path d="M97.4313 13H99.209L101.896 17.5251L104.632 13H106.41L102.748 18.6423L106.672 25H104.894L101.896 19.8319L98.6601 25H96.8742L100.97 18.6423L97.4313 13Z" fill="#25291F"/>
<path d="M107.541 13H109.318L112.005 17.5251L114.742 13H116.519L112.857 18.6423L116.781 25H115.004L112.005 19.8319L108.769 25H106.983L111.08 18.6423L107.541 13Z" fill="#25291F"/>
<path d="M117.65 13H119.428L122.115 17.5251L124.851 13H126.629L122.967 18.6423L126.891 25H125.113L122.115 19.8319L118.879 25H117.093L121.189 18.6423L117.65 13Z" fill="#25291F"/>
<path d="M127.759 13H129.537L132.224 17.5251L134.96 13H136.738L133.076 18.6423L137 25H135.222L132.224 19.8319L128.988 25H127.202L131.298 18.6423L127.759 13Z" fill="#25291F"/>
<rect x="145.75" y="6.75" width="125.5" height="25.5" stroke="#25291F" stroke-width="0.5"/>
<rect x="270.75" y="6.75" width="153.5" height="25.5" stroke="#25291F" stroke-width="0.5"/>
<rect x="423.75" y="6.75" width="142.5" height="25.5" stroke="#25291F" stroke-width="0.5"/>
<path d="M163.721 14.4307L161.984 20.5713H165.457L163.721 14.4307ZM162.726 13H164.724L168.45 25H166.746L165.849 21.8734H161.585L160.704 25H159L162.726 13Z" fill="#25291F"/>
<path d="M173.782 14.4307L172.045 20.5713H175.519L173.782 14.4307ZM172.787 13H174.785L178.511 25H176.807L175.91 21.8734H171.646L170.765 25H169.061L172.787 13Z" fill="#25291F"/>
<path d="M183.843 14.4307L182.106 20.5713H185.58L183.843 14.4307ZM182.848 13H184.846L188.572 25H186.868L185.971 21.8734H181.707L180.826 25H179.122L182.848 13Z" fill="#25291F"/>
<path d="M193.904 14.4307L192.168 20.5713H195.641L193.904 14.4307ZM192.91 13H194.907L198.633 25H196.929L196.032 21.8734H191.768L190.887 25H189.183L192.91 13Z" fill="#25291F"/>
<path d="M203.965 14.4307L202.229 20.5713H205.702L203.965 14.4307ZM202.971 13H204.968L208.694 25H206.99L206.093 21.8734H201.829L200.949 25H199.245L202.971 13Z" fill="#25291F"/>
<path d="M214.027 14.4307L212.29 20.5713H215.763L214.027 14.4307ZM213.032 13H215.029L218.755 25H217.051L216.155 21.8734H211.89L211.01 25H209.306L213.032 13Z" fill="#25291F"/>
<path d="M224.088 14.4307L222.351 20.5713H225.824L224.088 14.4307ZM223.093 13H225.091L228.817 25H227.113L226.216 21.8734H221.951L221.071 25H219.367L223.093 13Z" fill="#25291F"/>
<path d="M234.149 14.4307L232.412 20.5713H235.885L234.149 14.4307ZM233.154 13H235.152L238.878 25H237.174L236.277 21.8734H232.013L231.132 25H229.428L233.154 13Z" fill="#25291F"/>
<path d="M244.21 14.4307L242.473 20.5713H245.947L244.21 14.4307ZM243.215 13H245.213L248.939 25H247.235L246.338 21.8734H242.074L241.193 25H239.489L243.215 13Z" fill="#25291F"/>
<path d="M254.271 14.4307L252.534 20.5713H256.008L254.271 14.4307ZM253.276 13H255.274L259 25H257.296L256.399 21.8734H252.135L251.254 25H249.55L253.276 13Z" fill="#25291F"/>
<path d="M33.9085 39.0399V41.5873H34.961C35.3808 41.5873 35.7076 41.4753 35.9415 41.2513C36.1784 41.0272 36.2969 40.7139 36.2969 40.3113C36.2969 39.9087 36.1799 39.5969 35.946 39.3759C35.7121 39.1519 35.3838 39.0399 34.961 39.0399H33.9085ZM33 38.2861H34.961C35.7106 38.2861 36.2789 38.4586 36.6657 38.8037C37.0525 39.1458 37.2459 39.6483 37.2459 40.3113C37.2459 40.9803 37.0525 41.4859 36.6657 41.828C36.2819 42.17 35.7136 42.3411 34.961 42.3411H33.9085V45.0656H33V38.2861Z" fill="#25291F"/>
<path d="M42.8591 41.0288C42.6822 40.8895 42.5022 40.7881 42.3193 40.7245C42.1364 40.6609 41.9355 40.6292 41.7166 40.6292C41.2009 40.6292 40.8066 40.7926 40.5337 41.1196C40.2609 41.4465 40.1244 41.9188 40.1244 42.5363V45.0656H39.2924V39.9798H40.1244V40.9743C40.2624 40.614 40.4738 40.3385 40.7586 40.1478C41.0465 39.9541 41.3868 39.8572 41.7796 39.8572C41.9835 39.8572 42.1739 39.8829 42.3508 39.9344C42.5277 39.9859 42.6972 40.0661 42.8591 40.1751V41.0288Z" fill="#25291F"/>
<path d="M48.2519 42.1049V42.5136H44.6672V42.5409C44.6432 43.2341 44.7736 43.7321 45.0585 44.0348C45.3463 44.3375 45.7511 44.4889 46.2729 44.4889C46.5367 44.4889 46.8126 44.4465 47.1004 44.3618C47.3883 44.277 47.6957 44.1483 48.0225 43.9758V44.8068C47.7076 44.9369 47.4033 45.0338 47.1094 45.0974C46.8186 45.164 46.5367 45.1973 46.2639 45.1973C45.4813 45.1973 44.8696 44.9611 44.4288 44.4889C43.988 44.0136 43.7676 43.3597 43.7676 42.5272C43.7676 41.7159 43.9835 41.0681 44.4153 40.5838C44.8471 40.0994 45.4228 39.8572 46.1424 39.8572C46.7841 39.8572 47.2894 40.0767 47.6582 40.5156C48.03 40.9546 48.2279 41.4844 48.2519 42.1049ZM47.4243 41.8597C47.3883 41.5086 47.2609 41.2059 47.042 40.9516C46.8261 40.6942 46.5142 40.5656 46.1064 40.5656C45.7076 40.5656 45.3793 40.6988 45.1214 40.9652C44.8636 41.2316 44.7226 41.5313 44.6987 41.8643L47.4243 41.8597Z" fill="#25291F"/>
<path d="M53.5457 38V38.6948H52.6057C52.3088 38.6948 52.1019 38.7568 51.985 38.8809C51.8711 39.002 51.8141 39.2185 51.8141 39.5303V39.9798H53.5457V40.6292H51.8141V45.0656H50.9865V40.6292H49.6417V39.9798H50.9865V39.6256C50.9865 39.0686 51.1124 38.6584 51.3643 38.3951C51.6192 38.1317 52.015 38 52.5517 38H53.5457Z" fill="#25291F"/>
<path d="M55.7361 39.998H57.8546V44.4162H59.4963V45.0656H55.3853V44.4162H57.027V40.6473H55.7361V39.998ZM57.027 38.0227H57.8546V39.0762H57.027V38.0227Z" fill="#25291F"/>
<path d="M64.8936 39.9798L63.09 42.4137L65.069 45.0656H64.1109L62.6357 43.0267L61.1649 45.0656H60.2069L62.1859 42.4137L60.3823 39.9798H61.2999L62.6357 41.8189L63.9625 39.9798H64.8936Z" fill="#25291F"/>
<path d="M67.4033 43.4263H68.8066V44.6297L67.8081 46.5868L66.9085 46.5913L67.4033 44.6297V43.4263Z" fill="#25291F"/>
<path d="M77.7301 44.2982H79.1424V39.1761L77.4513 39.998V39.1171L79.1334 38.3088H80.042V44.2982H81.4363V45.0656H77.7301V44.2982Z" fill="#D6384B"/>
<path d="M83.7436 44.2936H86.8291V45.0656H82.7496V44.2936C83.3103 43.6973 83.8006 43.1705 84.2204 42.7134C84.6402 42.2563 84.9295 41.9339 85.0885 41.7462C85.3883 41.3769 85.5907 41.0787 85.6957 40.8517C85.8006 40.6216 85.8531 40.387 85.8531 40.1478C85.8531 39.7694 85.7421 39.4728 85.5202 39.2578C85.3014 39.0429 85 38.9354 84.6162 38.9354C84.3433 38.9354 84.057 38.9854 83.7571 39.0853C83.4573 39.1852 83.1394 39.3365 82.8036 39.5394V38.613C83.1124 38.4647 83.4153 38.3527 83.7121 38.277C84.012 38.2013 84.3073 38.1635 84.5982 38.1635C85.2549 38.1635 85.7826 38.3406 86.1814 38.6948C86.5832 39.0459 86.7841 39.5076 86.7841 40.0797C86.7841 40.3703 86.7166 40.6609 86.5817 40.9516C86.4498 41.2422 86.2339 41.5631 85.934 41.9142C85.7661 42.111 85.5217 42.3835 85.2009 42.7316C84.8831 43.0797 84.3973 43.6004 83.7436 44.2936Z" fill="#D6384B"/>
<path d="M97.2953 42.5272C97.2953 41.8794 97.1934 41.3905 96.9895 41.0605C96.7856 40.7306 96.4843 40.5656 96.0855 40.5656C95.6837 40.5656 95.3793 40.7321 95.1724 41.0651C94.9655 41.3951 94.8621 41.8824 94.8621 42.5272C94.8621 43.169 94.9655 43.6564 95.1724 43.9894C95.3793 44.3224 95.6837 44.4889 96.0855 44.4889C96.4843 44.4889 96.7856 44.3239 96.9895 43.9939C97.1934 43.664 97.2953 43.1751 97.2953 42.5272ZM94.8621 40.6292C94.994 40.3809 95.1754 40.1902 95.4063 40.057C95.6402 39.9238 95.91 39.8572 96.2159 39.8572C96.8216 39.8572 97.2984 40.0933 97.6462 40.5656C97.994 41.0348 98.1679 41.6826 98.1679 42.5091C98.1679 43.3476 97.9925 44.0061 97.6417 44.4844C97.2939 44.9596 96.8156 45.1973 96.2069 45.1973C95.907 45.1973 95.6417 45.1322 95.4108 45.002C95.1829 44.8688 95 44.6766 94.8621 44.4253V45.0656H94.0345V38H94.8621V40.6292Z" fill="#D6384B"/>
<path d="M102.576 43.4309C102.438 43.7851 102.262 44.2513 102.049 44.8295C101.753 45.6287 101.553 46.116 101.451 46.2916C101.313 46.5277 101.141 46.7048 100.934 46.8229C100.727 46.941 100.486 47 100.21 47H99.5442V46.3007H100.034C100.277 46.3007 100.468 46.2296 100.606 46.0873C100.744 45.945 100.919 45.5772 101.132 44.9839L99.1844 39.9798H100.061L101.555 43.9576L103.025 39.9798H103.903L102.576 43.4309Z" fill="#D6384B"/>
<path d="M107.028 38.5358V39.9798H108.909V40.6292H107.028V43.39C107.028 43.7654 107.099 44.0272 107.24 44.1756C107.381 44.3239 107.627 44.3981 107.978 44.3981H108.909V45.0656H107.897C107.276 45.0656 106.838 44.94 106.583 44.6887C106.328 44.4374 106.201 44.0045 106.201 43.39V40.6292H104.856V39.9798H106.201V38.5358H107.028Z" fill="#D6384B"/>
<path d="M114.855 42.1049V42.5136H111.27V42.5409C111.246 43.2341 111.376 43.7321 111.661 44.0348C111.949 44.3375 112.354 44.4889 112.876 44.4889C113.139 44.4889 113.415 44.4465 113.703 44.3618C113.991 44.277 114.298 44.1483 114.625 43.9758V44.8068C114.31 44.9369 114.006 45.0338 113.712 45.0974C113.421 45.164 113.139 45.1973 112.867 45.1973C112.084 45.1973 111.472 44.9611 111.031 44.4889C110.591 44.0136 110.37 43.3597 110.37 42.5272C110.37 41.7159 110.586 41.0681 111.018 40.5838C111.45 40.0994 112.025 39.8572 112.745 39.8572C113.387 39.8572 113.892 40.0767 114.261 40.5156C114.633 40.9546 114.831 41.4844 114.855 42.1049ZM114.027 41.8597C113.991 41.5086 113.864 41.2059 113.645 40.9516C113.429 40.6942 113.117 40.5656 112.709 40.5656C112.31 40.5656 111.982 40.6988 111.724 40.9652C111.466 41.2316 111.325 41.5313 111.301 41.8643L114.027 41.8597Z" fill="#D6384B"/>
<path d="M119.744 40.1569V40.9743C119.507 40.835 119.268 40.7306 119.028 40.6609C118.789 40.5913 118.544 40.5565 118.295 40.5565C117.921 40.5565 117.64 40.6186 117.454 40.7427C117.271 40.8638 117.18 41.0499 117.18 41.3012C117.18 41.5283 117.249 41.6978 117.387 41.8098C117.525 41.9218 117.868 42.0308 118.417 42.1367L118.75 42.2003C119.16 42.279 119.471 42.4364 119.681 42.6726C119.894 42.9087 120 43.2159 120 43.5943C120 44.0969 119.823 44.4904 119.469 44.775C119.115 45.0565 118.624 45.1973 117.994 45.1973C117.745 45.1973 117.484 45.17 117.211 45.1155C116.939 45.0641 116.643 44.9854 116.325 44.8794V44.0166C116.634 44.1771 116.93 44.2982 117.211 44.3799C117.493 44.4586 117.76 44.498 118.012 44.498C118.378 44.498 118.661 44.4238 118.862 44.2755C119.063 44.1241 119.163 43.9137 119.163 43.6443C119.163 43.2568 118.796 42.9889 118.061 42.8406L118.025 42.8315L117.715 42.7679C117.238 42.6741 116.891 42.5166 116.672 42.2957C116.453 42.0716 116.343 41.7674 116.343 41.3829C116.343 40.8956 116.507 40.5202 116.834 40.2568C117.16 39.9904 117.627 39.8572 118.232 39.8572C118.502 39.8572 118.762 39.8829 119.01 39.9344C119.259 39.9828 119.504 40.057 119.744 40.1569Z" fill="#D6384B"/>
<path d="M157 42.4637V38.2861H157.905V42.8814C157.905 43.2114 157.914 43.4475 157.932 43.5898C157.95 43.7291 157.981 43.8365 158.026 43.9122C158.121 44.0908 158.258 44.2255 158.436 44.3163C158.617 44.4072 158.836 44.4526 159.092 44.4526C159.35 44.4526 159.569 44.4072 159.747 44.3163C159.926 44.2255 160.064 44.0908 160.162 43.9122C160.207 43.8365 160.238 43.7291 160.256 43.5898C160.274 43.4506 160.282 43.2175 160.282 42.8905V38.2861H161.183V42.4637C161.183 43.1569 161.14 43.6504 161.054 43.944C160.971 44.2346 160.825 44.4753 160.617 44.666C160.421 44.8446 160.196 44.9778 159.943 45.0656C159.691 45.1534 159.407 45.1973 159.092 45.1973C158.779 45.1973 158.497 45.1534 158.244 45.0656C157.992 44.9778 157.766 44.8446 157.566 44.666C157.361 44.4783 157.216 44.2361 157.129 43.9395C157.043 43.6398 157 43.1478 157 42.4637Z" fill="#25291F"/>
<path d="M166.187 40.1569V40.9743C165.952 40.835 165.716 40.7306 165.478 40.6609C165.24 40.5913 164.998 40.5565 164.751 40.5565C164.38 40.5565 164.102 40.6186 163.917 40.7427C163.736 40.8638 163.645 41.0499 163.645 41.3012C163.645 41.5283 163.714 41.6978 163.85 41.8098C163.987 41.9218 164.328 42.0308 164.872 42.1367L165.202 42.2003C165.609 42.279 165.917 42.4364 166.125 42.6726C166.336 42.9087 166.441 43.2159 166.441 43.5943C166.441 44.0969 166.266 44.4904 165.915 44.775C165.564 45.0565 165.077 45.1973 164.452 45.1973C164.206 45.1973 163.947 45.17 163.676 45.1155C163.406 45.0641 163.113 44.9854 162.798 44.8794V44.0166C163.104 44.1771 163.397 44.2982 163.676 44.3799C163.956 44.4586 164.22 44.498 164.47 44.498C164.833 44.498 165.114 44.4238 165.313 44.2755C165.512 44.1241 165.612 43.9137 165.612 43.6443C165.612 43.2568 165.248 42.9889 164.519 42.8406L164.484 42.8315L164.176 42.7679C163.703 42.6741 163.358 42.5166 163.141 42.2957C162.924 42.0716 162.816 41.7674 162.816 41.3829C162.816 40.8956 162.978 40.5202 163.302 40.2568C163.626 39.9904 164.088 39.8572 164.689 39.8572C164.956 39.8572 165.214 39.8829 165.46 39.9344C165.707 39.9828 165.949 40.057 166.187 40.1569Z" fill="#25291F"/>
<path d="M172.346 42.1049V42.5136H168.792V42.5409C168.768 43.2341 168.897 43.7321 169.18 44.0348C169.465 44.3375 169.867 44.4889 170.384 44.4889C170.646 44.4889 170.919 44.4465 171.205 44.3618C171.49 44.277 171.795 44.1483 172.119 43.9758V44.8068C171.807 44.9369 171.505 45.0338 171.214 45.0974C170.925 45.164 170.646 45.1973 170.375 45.1973C169.599 45.1973 168.993 44.9611 168.555 44.4889C168.118 44.0136 167.9 43.3597 167.9 42.5272C167.9 41.7159 168.114 41.0681 168.542 40.5838C168.97 40.0994 169.541 39.8572 170.255 39.8572C170.891 39.8572 171.392 40.0767 171.758 40.5156C172.126 40.9546 172.323 41.4844 172.346 42.1049ZM171.526 41.8597C171.49 41.5086 171.364 41.2059 171.147 40.9516C170.933 40.6942 170.623 40.5656 170.219 40.5656C169.824 40.5656 169.498 40.6988 169.242 40.9652C168.987 41.2316 168.847 41.5313 168.823 41.8643L171.526 41.8597Z" fill="#25291F"/>
<path d="M178.006 41.0288C177.83 40.8895 177.652 40.7881 177.471 40.7245C177.289 40.6609 177.09 40.6292 176.873 40.6292C176.362 40.6292 175.971 40.7926 175.7 41.1196C175.43 41.4465 175.294 41.9188 175.294 42.5363V45.0656H174.469V39.9798H175.294V40.9743C175.431 40.614 175.641 40.3385 175.923 40.1478C176.209 39.9541 176.546 39.8572 176.935 39.8572C177.138 39.8572 177.326 39.8829 177.502 39.9344C177.677 39.9859 177.845 40.0661 178.006 40.1751V41.0288Z" fill="#25291F"/>
<path d="M185.271 39.998H187.372V44.4162H188.999V45.0656H184.923V44.4162H186.551V40.6473H185.271V39.998ZM186.551 38.0227H187.372V39.0762H186.551V38.0227Z" fill="#25291F"/>
<path d="M194.052 41.9142V45.0656H193.227V41.9142C193.227 41.4571 193.148 41.1211 192.991 40.9062C192.833 40.6912 192.587 40.5838 192.251 40.5838C191.867 40.5838 191.571 40.723 191.363 41.0015C191.158 41.277 191.055 41.6736 191.055 42.1912V45.0656H190.235V39.9798H191.055V40.7427C191.201 40.4521 191.399 40.2326 191.648 40.0843C191.898 39.9329 192.194 39.8572 192.536 39.8572C193.044 39.8572 193.424 40.0283 193.673 40.3703C193.926 40.7094 194.052 41.224 194.052 41.9142Z" fill="#25291F"/>
<path d="M196.541 44.4253V47H195.716V39.9798H196.541V40.6292C196.678 40.3779 196.859 40.1872 197.085 40.057C197.314 39.9238 197.577 39.8572 197.874 39.8572C198.478 39.8572 198.951 40.0949 199.293 40.5701C199.638 41.0454 199.81 41.7038 199.81 42.5454C199.81 43.3718 199.638 44.0212 199.293 44.4934C198.948 44.9627 198.475 45.1973 197.874 45.1973C197.571 45.1973 197.305 45.1322 197.076 45.002C196.85 44.8688 196.672 44.6766 196.541 44.4253ZM198.949 42.5272C198.949 41.8794 198.848 41.3905 198.646 41.0605C198.447 40.7306 198.149 40.5656 197.754 40.5656C197.356 40.5656 197.054 40.7321 196.849 41.0651C196.644 41.3951 196.541 41.8824 196.541 42.5272C196.541 43.169 196.644 43.6564 196.849 43.9894C197.054 44.3224 197.356 44.4889 197.754 44.4889C198.149 44.4889 198.447 44.3239 198.646 43.9939C198.848 43.664 198.949 43.1751 198.949 42.5272Z" fill="#25291F"/>
<path d="M201.242 43.1403V39.9889H202.062V43.1403C202.062 43.5974 202.141 43.9334 202.299 44.1483C202.459 44.3633 202.706 44.4707 203.039 44.4707C203.425 44.4707 203.721 44.333 203.926 44.0575C204.132 43.779 204.234 43.3809 204.234 42.8633V39.9889H205.059V45.0656H204.234V44.3027C204.088 44.5964 203.889 44.8189 203.637 44.9702C203.387 45.1216 203.094 45.1973 202.758 45.1973C202.247 45.1973 201.866 45.0277 201.616 44.6887C201.366 44.3466 201.242 43.8305 201.242 43.1403Z" fill="#25291F"/>
<path d="M208.614 38.5358V39.9798H210.478V40.6292H208.614V43.39C208.614 43.7654 208.684 44.0272 208.823 44.1756C208.963 44.3239 209.207 44.3981 209.555 44.3981H210.478V45.0656H209.474C208.859 45.0656 208.425 44.94 208.172 44.6887C207.919 44.4374 207.793 44.0045 207.793 43.39V40.6292H206.46V39.9798H207.793V38.5358H208.614Z" fill="#25291F"/>
<path d="M213.35 43.4263H214.742V44.6297L213.751 46.5868L212.859 46.5913L213.35 44.6297V43.4263Z" fill="#25291F"/>
<path d="M222.769 38.2861H223.737L225.2 40.8426L226.689 38.2861H227.657L225.664 41.4738L227.8 45.0656H226.832L225.2 42.1458L223.438 45.0656H222.466L224.696 41.4738L222.769 38.2861Z" fill="#D6384B"/>
<path d="M237.487 42.5272C237.487 41.8794 237.386 41.3905 237.183 41.0605C236.981 40.7306 236.682 40.5656 236.287 40.5656C235.889 40.5656 235.587 40.7321 235.382 41.0651C235.177 41.3951 235.074 41.8824 235.074 42.5272C235.074 43.169 235.177 43.6564 235.382 43.9894C235.587 44.3224 235.889 44.4889 236.287 44.4889C236.682 44.4889 236.981 44.3239 237.183 43.9939C237.386 43.664 237.487 43.1751 237.487 42.5272ZM235.074 40.6292C235.205 40.3809 235.385 40.1902 235.614 40.057C235.846 39.9238 236.113 39.8572 236.416 39.8572C237.017 39.8572 237.49 40.0933 237.835 40.5656C238.179 41.0348 238.352 41.6826 238.352 42.5091C238.352 43.3476 238.178 44.0061 237.83 44.4844C237.485 44.9596 237.011 45.1973 236.407 45.1973C236.11 45.1973 235.847 45.1322 235.618 45.002C235.392 44.8688 235.211 44.6766 235.074 44.4253V45.0656H234.253V38H235.074V40.6292Z" fill="#D6384B"/>
<path d="M242.723 43.4309C242.586 43.7851 242.412 44.2513 242.201 44.8295C241.906 45.6287 241.709 46.116 241.608 46.2916C241.471 46.5277 241.3 46.7048 241.095 46.8229C240.89 46.941 240.65 47 240.377 47H239.717V46.3007H240.203C240.444 46.3007 240.632 46.2296 240.769 46.0873C240.906 45.945 241.08 45.5772 241.291 44.9839L239.36 39.9798H240.23L241.71 43.9576L243.169 39.9798H244.038L242.723 43.4309Z" fill="#D6384B"/>
<path d="M247.138 38.5358V39.9798H249.002V40.6292H247.138V43.39C247.138 43.7654 247.208 44.0272 247.347 44.1756C247.487 44.3239 247.731 44.3981 248.079 44.3981H249.002V45.0656H247.999C247.383 45.0656 246.949 44.94 246.696 44.6887C246.444 44.4374 246.317 44.0045 246.317 43.39V40.6292H244.984V39.9798H246.317V38.5358H247.138Z" fill="#D6384B"/>
<path d="M254.898 42.1049V42.5136H251.343V42.5409C251.32 43.2341 251.449 43.7321 251.731 44.0348C252.017 44.3375 252.418 44.4889 252.936 44.4889C253.197 44.4889 253.471 44.4465 253.756 44.3618C254.042 44.277 254.346 44.1483 254.67 43.9758V44.8068C254.358 44.9369 254.057 45.0338 253.765 45.0974C253.477 45.164 253.197 45.1973 252.927 45.1973C252.151 45.1973 251.544 44.9611 251.107 44.4889C250.67 44.0136 250.451 43.3597 250.451 42.5272C250.451 41.7159 250.666 41.0681 251.094 40.5838C251.522 40.0994 252.093 39.8572 252.806 39.8572C253.443 39.8572 253.944 40.0767 254.309 40.5156C254.678 40.9546 254.874 41.4844 254.898 42.1049ZM254.077 41.8597C254.042 41.5086 253.915 41.2059 253.698 40.9516C253.484 40.6942 253.175 40.5656 252.771 40.5656C252.375 40.5656 252.05 40.6988 251.794 40.9652C251.538 41.2316 251.398 41.5313 251.375 41.8643L254.077 41.8597Z" fill="#D6384B"/>
<path d="M259.746 40.1569V40.9743C259.511 40.835 259.275 40.7306 259.037 40.6609C258.799 40.5913 258.557 40.5565 258.31 40.5565C257.938 40.5565 257.66 40.6186 257.476 40.7427C257.294 40.8638 257.204 41.0499 257.204 41.3012C257.204 41.5283 257.272 41.6978 257.409 41.8098C257.546 41.9218 257.886 42.0308 258.43 42.1367L258.76 42.2003C259.167 42.279 259.475 42.4364 259.683 42.6726C259.894 42.9087 260 43.2159 260 43.5943C260 44.0969 259.825 44.4904 259.474 44.775C259.123 45.0565 258.635 45.1973 258.011 45.1973C257.764 45.1973 257.505 45.17 257.235 45.1155C256.964 45.0641 256.671 44.9854 256.356 44.8794V44.0166C256.663 44.1771 256.955 44.2982 257.235 44.3799C257.514 44.4586 257.779 44.498 258.029 44.498C258.391 44.498 258.672 44.4238 258.872 44.2755C259.071 44.1241 259.17 43.9137 259.17 43.6443C259.17 43.2568 258.806 42.9889 258.078 42.8406L258.042 42.8315L257.734 42.7679C257.262 42.6741 256.917 42.5166 256.7 42.2957C256.483 42.0716 256.374 41.7674 256.374 41.3829C256.374 40.8956 256.536 40.5202 256.86 40.2568C257.184 39.9904 257.647 39.8572 258.247 39.8572C258.515 39.8572 258.772 39.8829 259.019 39.9344C259.266 39.9828 259.508 40.057 259.746 40.1569Z" fill="#D6384B"/>
<path d="M338 38.3102H341.897V39.0744H338.9V40.8726H341.618V41.6369H338.9V45.022H338V38.3102Z" fill="#25291F"/>
<path d="M345.626 43.2013C345.626 43.5729 345.692 43.8531 345.825 44.042C345.961 44.2308 346.161 44.3252 346.424 44.3252H347.377V45.022H346.344C345.856 45.022 345.478 44.8646 345.209 44.5499C344.943 44.2323 344.81 43.7827 344.81 43.2013V38.6474H343.502V38H345.626V43.2013Z" fill="#25291F"/>
<path d="M351.022 42.491H350.751C350.275 42.491 349.916 42.5764 349.674 42.7473C349.434 42.9151 349.315 43.1668 349.315 43.5025C349.315 43.8052 349.405 44.0405 349.585 44.2083C349.765 44.3761 350.015 44.46 350.334 44.46C350.784 44.46 351.137 44.3027 351.394 43.988C351.651 43.6703 351.781 43.2328 351.784 42.6753V42.491H351.022ZM352.604 42.1494V45.022H351.784V44.2757C351.61 44.5754 351.389 44.7972 351.123 44.9411C350.86 45.0819 350.54 45.1523 350.161 45.1523C349.656 45.1523 349.252 45.0085 348.951 44.7208C348.65 44.4301 348.499 44.042 348.499 43.5564C348.499 42.996 348.684 42.5704 349.053 42.2797C349.425 41.989 349.971 41.8437 350.689 41.8437H351.784V41.7133C351.781 41.3117 351.681 41.021 351.483 40.8412C351.285 40.6583 350.968 40.5669 350.534 40.5669C350.256 40.5669 349.975 40.6074 349.691 40.6883C349.408 40.7692 349.131 40.8876 348.862 41.0435V40.2163C349.164 40.0994 349.452 40.0125 349.727 39.9555C350.005 39.8956 350.274 39.8656 350.534 39.8656C350.945 39.8656 351.295 39.9271 351.585 40.0499C351.877 40.1728 352.114 40.3571 352.294 40.6029C352.406 40.7527 352.486 40.9386 352.533 41.1603C352.581 41.3791 352.604 41.7088 352.604 42.1494Z" fill="#25291F"/>
<path d="M357.184 42.464C357.184 41.8437 357.084 41.3731 356.883 41.0524C356.685 40.7288 356.395 40.5669 356.014 40.5669C355.615 40.5669 355.31 40.7288 355.1 41.0524C354.891 41.3731 354.786 41.8437 354.786 42.464C354.786 43.0844 354.891 43.5579 355.1 43.8846C355.313 44.2083 355.621 44.3701 356.023 44.3701C356.398 44.3701 356.685 44.2068 356.883 43.8801C357.084 43.5534 357.184 43.0814 357.184 42.464ZM358 44.6983C358 45.4535 357.824 46.026 357.472 46.4156C357.121 46.8052 356.603 47 355.921 47C355.696 47 355.461 46.979 355.216 46.9371C354.97 46.8951 354.725 46.8337 354.48 46.7527V45.9346C354.769 46.0724 355.032 46.1743 355.269 46.2403C355.505 46.3062 355.723 46.3392 355.921 46.3392C356.361 46.3392 356.682 46.2178 356.883 45.975C357.084 45.7323 357.184 45.3472 357.184 44.8197V44.7837V44.2218C357.054 44.5035 356.877 44.7133 356.652 44.8511C356.428 44.989 356.154 45.0579 355.832 45.0579C355.253 45.0579 354.79 44.8227 354.444 44.3521C354.098 43.8816 353.926 43.2522 353.926 42.464C353.926 41.6728 354.098 41.042 354.444 40.5714C354.79 40.1009 355.253 39.8656 355.832 39.8656C356.151 39.8656 356.422 39.9301 356.643 40.0589C356.865 40.1878 357.045 40.3871 357.184 40.6568V40.005H358V44.6983Z" fill="#25291F"/>
<path d="M477.906 39.0326V41.5621H478.956C479.374 41.5621 479.7 41.4509 479.933 41.2285C480.17 41.006 480.288 40.6949 480.288 40.2951C480.288 39.8953 480.171 39.5857 479.938 39.3662C479.705 39.1438 479.377 39.0326 478.956 39.0326H477.906ZM477 38.2841H478.956C479.703 38.2841 480.27 38.4554 480.656 38.7981C481.041 39.1378 481.234 39.6368 481.234 40.2951C481.234 40.9594 481.041 41.4614 480.656 41.8011C480.273 42.1408 479.706 42.3106 478.956 42.3106H477.906V45.016H477V38.2841Z" fill="#25291F"/>
<path d="M484.8 42.4775H484.526C484.045 42.4775 483.682 42.5631 483.437 42.7345C483.194 42.9028 483.073 43.1553 483.073 43.492C483.073 43.7956 483.164 44.0316 483.347 44.1999C483.529 44.3682 483.782 44.4524 484.105 44.4524C484.559 44.4524 484.917 44.2946 485.177 43.979C485.437 43.6603 485.569 43.2214 485.572 42.6623V42.4775H484.8ZM486.401 42.1348V45.016H485.572V44.2675C485.395 44.5681 485.172 44.7906 484.903 44.9349C484.637 45.0762 484.313 45.1468 483.93 45.1468C483.419 45.1468 483.01 45.0025 482.705 44.7139C482.4 44.4223 482.248 44.0331 482.248 43.5461C482.248 42.984 482.435 42.5571 482.809 42.2655C483.185 41.9739 483.737 41.8282 484.464 41.8282H485.572V41.6974C485.569 41.2946 485.467 41.003 485.267 40.8226C485.066 40.6393 484.746 40.5476 484.307 40.5476C484.026 40.5476 483.742 40.5882 483.454 40.6693C483.167 40.7505 482.888 40.8692 482.616 41.0256V40.1959C482.921 40.0787 483.212 39.9915 483.49 39.9344C483.771 39.8742 484.044 39.8442 484.307 39.8442C484.722 39.8442 485.077 39.9058 485.37 40.0291C485.666 40.1523 485.905 40.3372 486.087 40.5837C486.201 40.734 486.282 40.9203 486.33 41.1428C486.377 41.3622 486.401 41.6929 486.401 42.1348Z" fill="#25291F"/>
<path d="M491.035 40.6107V38H491.86V45.016H491.035V44.3803C490.897 44.6298 490.713 44.8206 490.483 44.9529C490.256 45.0822 489.993 45.1468 489.694 45.1468C489.087 45.1468 488.608 44.9108 488.258 44.4389C487.911 43.9639 487.738 43.3101 487.738 42.4775C487.738 41.6568 487.913 41.0135 488.263 40.5476C488.613 40.0787 489.09 39.8442 489.694 39.8442C489.996 39.8442 490.262 39.9103 490.492 40.0426C490.722 40.1718 490.903 40.3612 491.035 40.6107ZM488.608 42.4955C488.608 43.1388 488.71 43.6242 488.913 43.9519C489.117 44.2796 489.417 44.4434 489.815 44.4434C490.212 44.4434 490.514 44.2781 490.721 43.9474C490.93 43.6167 491.035 43.1328 491.035 42.4955C491.035 41.8552 490.93 41.3712 490.721 41.0436C490.514 40.7129 490.212 40.5476 489.815 40.5476C489.417 40.5476 489.117 40.7114 488.913 41.0391C488.71 41.3667 488.608 41.8522 488.608 42.4955Z" fill="#25291F"/>
<path d="M496.57 40.6107V38H497.395V45.016H496.57V44.3803C496.432 44.6298 496.248 44.8206 496.018 44.9529C495.791 45.0822 495.528 45.1468 495.229 45.1468C494.622 45.1468 494.143 44.9108 493.793 44.4389C493.446 43.9639 493.273 43.3101 493.273 42.4775C493.273 41.6568 493.448 41.0135 493.798 40.5476C494.148 40.0787 494.625 39.8442 495.229 39.8442C495.531 39.8442 495.797 39.9103 496.027 40.0426C496.257 40.1718 496.438 40.3612 496.57 40.6107ZM494.143 42.4955C494.143 43.1388 494.245 43.6242 494.448 43.9519C494.652 44.2796 494.952 44.4434 495.35 44.4434C495.747 44.4434 496.049 44.2781 496.256 43.9474C496.465 43.6167 496.57 43.1328 496.57 42.4955C496.57 41.8552 496.465 41.3712 496.256 41.0436C496.049 40.7129 495.747 40.5476 495.35 40.5476C494.952 40.5476 494.652 40.7114 494.448 41.0391C494.245 41.3667 494.143 41.8522 494.143 42.4955Z" fill="#25291F"/>
<path d="M499.674 39.984H501.786V44.3712H503.423V45.016H499.324V44.3712H500.961V40.6288H499.674V39.984ZM500.961 38.0225H501.786V39.0686H500.961V38.0225Z" fill="#25291F"/>
<path d="M508.505 41.8868V45.016H507.676V41.8868C507.676 41.4329 507.596 41.0992 507.438 40.8858C507.279 40.6723 507.031 40.5656 506.693 40.5656C506.308 40.5656 506.01 40.7039 505.801 40.9805C505.594 41.254 505.491 41.6478 505.491 42.1618V45.016H504.666V39.9659H505.491V40.7234C505.638 40.4349 505.837 40.2169 506.088 40.0696C506.339 39.9193 506.636 39.8442 506.98 39.8442C507.492 39.8442 507.873 40.014 508.124 40.3537C508.378 40.6904 508.505 41.2014 508.505 41.8868Z" fill="#25291F"/>
<path d="M513.175 42.4504C513.175 41.8282 513.073 41.3562 512.87 41.0346C512.669 40.7099 512.376 40.5476 511.991 40.5476C511.587 40.5476 511.279 40.7099 511.067 41.0346C510.854 41.3562 510.748 41.8282 510.748 42.4504C510.748 43.0726 510.854 43.5476 511.067 43.8753C511.282 44.1999 511.593 44.3622 512 44.3622C512.379 44.3622 512.669 44.1984 512.87 43.8707C513.073 43.5431 513.175 43.0696 513.175 42.4504ZM514 44.6914C514 45.4489 513.822 46.023 513.466 46.4138C513.11 46.8046 512.587 47 511.896 47C511.669 47 511.431 46.979 511.183 46.9369C510.935 46.8948 510.687 46.8332 510.439 46.752V45.9314C510.732 46.0696 510.998 46.1718 511.237 46.238C511.476 46.3041 511.696 46.3372 511.896 46.3372C512.342 46.3372 512.666 46.2154 512.87 45.9719C513.073 45.7285 513.175 45.3422 513.175 44.8131V44.7771V44.2134C513.043 44.496 512.864 44.7064 512.636 44.8447C512.409 44.983 512.133 45.0521 511.807 45.0521C511.221 45.0521 510.753 44.8161 510.403 44.3442C510.053 43.8722 509.878 43.241 509.878 42.4504C509.878 41.6568 510.053 41.024 510.403 40.5521C510.753 40.0802 511.221 39.8442 511.807 39.8442C512.13 39.8442 512.403 39.9088 512.627 40.0381C512.852 40.1673 513.034 40.3672 513.175 40.6378V39.984H514V44.6914Z" fill="#25291F"/>
<path d="M431.722 12.9058H433.48L436.137 17.4665L438.842 12.9058H440.6L436.979 18.5924L440.859 25H439.101L436.137 19.7913L432.937 25H431.171L435.221 18.5924L431.722 12.9058ZM441.718 12.9058H443.476L446.133 17.4665L448.838 12.9058H450.596L446.975 18.5924L450.855 25H449.098L446.133 19.7913L442.933 25H441.167L445.217 18.5924L441.718 12.9058ZM451.714 12.9058H453.472L456.129 17.4665L458.835 12.9058H460.592L456.971 18.5924L460.852 25H459.094L456.129 19.7913L452.929 25H451.163L455.214 18.5924L451.714 12.9058ZM461.71 12.9058H463.468L466.125 17.4665L468.831 12.9058H470.588L466.967 18.5924L470.848 25H469.09L466.125 19.7913L462.925 25H461.159L465.21 18.5924L461.71 12.9058ZM471.706 12.9058H473.464L476.121 17.4665L478.827 12.9058H480.585L476.964 18.5924L480.844 25H479.086L476.121 19.7913L472.921 25H471.156L475.206 18.5924L471.706 12.9058ZM481.702 12.9058H483.46L486.117 17.4665L488.823 12.9058H490.581L486.96 18.5924L490.84 25H489.082L486.117 19.7913L482.918 25H481.152L485.202 18.5924L481.702 12.9058ZM491.699 12.9058H493.456L496.113 17.4665L498.819 12.9058H500.577L496.956 18.5924L500.836 25H499.078L496.113 19.7913L492.914 25H491.148L495.198 18.5924L491.699 12.9058ZM501.695 12.9058H503.453L506.11 17.4665L508.815 12.9058H510.573L506.952 18.5924L510.832 25H509.074L506.11 19.7913L502.91 25H501.144L505.194 18.5924L501.695 12.9058ZM511.691 12.9058H513.449L516.106 17.4665L518.811 12.9058H520.569L516.948 18.5924L520.828 25H519.07L516.106 19.7913L512.906 25H511.14L515.19 18.5924L511.691 12.9058ZM521.687 12.9058H523.445L526.102 17.4665L528.807 12.9058H530.565L526.944 18.5924L530.824 25H529.067L526.102 19.7913L522.902 25H521.136L525.186 18.5924L521.687 12.9058ZM531.683 12.9058H533.441L536.098 17.4665L538.804 12.9058H540.561L536.94 18.5924L540.821 25H539.063L536.098 19.7913L532.898 25H531.132L535.183 18.5924L531.683 12.9058ZM541.679 12.9058H543.437L546.094 17.4665L548.8 12.9058H550.557L546.936 18.5924L550.817 25H549.059L546.094 19.7913L542.894 25H541.128L545.179 18.5924L541.679 12.9058ZM551.675 12.9058H553.433L556.09 17.4665L558.796 12.9058H560.554L556.933 18.5924L560.813 25H559.055L556.09 19.7913L552.89 25H551.124L555.175 18.5924L551.675 12.9058Z" fill="#25291F"/>
<path d="M285 12.3837H286.506V16.7089H290.61V12.3837H292.116V23.673H290.61V17.9943H286.506V23.673H285V12.3837Z" fill="#25291F"/>
<path d="M293.489 12.3837H301.941V13.6692H298.476V23.673H296.969V13.6692H293.489V12.3837Z" fill="#25291F"/>
<path d="M305.035 17.9792V22.4178H306.809C307.68 22.4178 308.3 22.264 308.671 21.9565C309.042 21.644 309.228 21.1323 309.228 20.4216C309.228 19.4839 309.033 18.8437 308.642 18.5009C308.251 18.1531 307.64 17.9792 306.809 17.9792H305.035ZM305.035 13.6389V16.7391H306.779C307.501 16.7391 308.023 16.598 308.345 16.3157C308.671 16.0334 308.835 15.678 308.835 15.2495C308.835 14.6799 308.674 14.2691 308.352 14.017C308.036 13.765 307.511 13.6389 306.779 13.6389H305.035ZM303.529 12.3837H306.809C307.942 12.3837 308.815 12.6333 309.428 13.1323C310.042 13.6314 310.348 14.3371 310.348 15.2495C310.348 15.7385 310.185 16.1821 309.859 16.5803C309.537 16.9786 309.052 17.2281 308.404 17.3289C309.131 17.4398 309.7 17.7574 310.111 18.2817C310.527 18.8009 310.734 19.5646 310.734 20.5728C310.734 21.5961 310.405 22.3699 309.747 22.8941C309.089 23.4134 308.11 23.673 306.809 23.673H303.529V12.3837Z" fill="#25291F"/>
<path d="M319.112 24.0586V25.1474H318.637C317.405 25.1474 316.579 24.9609 316.159 24.5879C315.743 24.2149 315.535 23.4713 315.535 22.3573V20.845C315.535 20.2955 315.382 19.8217 315.075 19.4234C314.773 19.0252 314.304 18.8261 313.665 18.8261H312.76V17.7448H313.665C314.363 17.7448 314.848 17.5759 315.12 17.2382C315.397 16.9004 315.535 16.4039 315.535 15.7486V13.7826C315.535 12.6686 315.743 11.9275 316.159 11.5595C316.579 11.1865 317.405 11 318.637 11H319.112V12.0813H318.593C317.9 12.0813 317.447 12.1922 317.235 12.414C317.027 12.6307 316.923 13.097 316.923 13.8129V15.8393C316.923 16.7265 316.752 17.3239 316.411 17.6314C316.07 17.9338 315.404 18.1531 314.415 18.2892C315.375 18.4052 316.033 18.6295 316.389 18.9622C316.745 19.2899 316.923 19.8847 316.923 20.7467V22.327C316.923 23.0479 317.027 23.5167 317.235 23.7335C317.447 23.9502 317.9 24.0586 318.593 24.0586H319.112Z" fill="#25291F"/>
<path d="M328.499 11.9074V13.0643H326.948C326.458 13.0643 326.117 13.1676 325.924 13.3743C325.736 13.5759 325.642 13.9364 325.642 14.4556V15.2042H328.499V16.2854H325.642V23.673H324.277V16.2854H322.058V15.2042H324.277V14.6144C324.277 13.6868 324.484 13.0038 324.9 12.5652C325.32 12.1267 325.973 11.9074 326.859 11.9074H328.499Z" fill="#25291F"/>
<path d="M335.222 13.775L331.727 19.741H335.222V13.775ZM334.977 12.3837H336.713V19.741H338.19V20.9811H336.713V23.673H335.222V20.9811H330.525V19.5369L334.977 12.3837Z" fill="#25291F"/>
<path d="M340.676 11.9074H342.086V18.7202L345.67 15.2042H347.332L344.06 18.3951L347.844 23.673H346.175L343.102 19.3025L342.086 20.2779V23.673H340.676V11.9074Z" fill="#25291F"/>
<path d="M356.393 18.7429V19.4234H350.478V19.4688C350.439 20.6232 350.654 21.4524 351.124 21.9565C351.599 22.4606 352.267 22.7127 353.128 22.7127C353.563 22.7127 354.018 22.6421 354.493 22.5009C354.968 22.3598 355.475 22.1456 356.014 21.8582V23.242C355.495 23.4587 354.993 23.62 354.508 23.7259C354.028 23.8368 353.563 23.8922 353.113 23.8922C351.822 23.8922 350.812 23.4991 350.085 22.7127C349.358 21.9212 348.994 20.8324 348.994 19.4461C348.994 18.0951 349.351 17.0164 350.063 16.2098C350.775 15.4033 351.725 15 352.912 15C353.971 15 354.805 15.3655 355.413 16.0964C356.027 16.8273 356.353 17.7095 356.393 18.7429ZM355.027 18.3346C354.968 17.7498 354.758 17.2457 354.396 16.8223C354.04 16.3938 353.526 16.1796 352.853 16.1796C352.195 16.1796 351.653 16.4014 351.228 16.845C350.802 17.2886 350.57 17.7876 350.53 18.3422L355.027 18.3346Z" fill="#25291F"/>
<path d="M366.321 25.1096V26.3951H357.239V25.1096H366.321Z" fill="#25291F"/>
<path d="M374.283 11.9074V13.0643H372.733C372.243 13.0643 371.901 13.1676 371.708 13.3743C371.52 13.5759 371.427 13.9364 371.427 14.4556V15.2042H374.283V16.2854H371.427V23.673H370.061V16.2854H367.842V15.2042H370.061V14.6144C370.061 13.6868 370.269 13.0038 370.684 12.5652C371.105 12.1267 371.758 11.9074 372.643 11.9074H374.283Z" fill="#25291F"/>
<path d="M377.556 22.3951H379.886V13.8658L377.096 15.2344V13.7675L379.871 12.4216H381.37V22.3951H383.67V23.673H377.556V22.3951Z" fill="#25291F"/>
<path d="M390.163 13.775L386.668 19.741H390.163V13.775ZM389.918 12.3837H391.655V19.741H393.131V20.9811H391.655V23.673H390.163V20.9811H385.466V19.5369L389.918 12.3837Z" fill="#25291F"/>
<path d="M400.233 19.3705C400.233 18.327 400.065 17.5356 399.728 16.9962C399.397 16.4518 398.912 16.1796 398.274 16.1796C397.606 16.1796 397.096 16.4518 396.745 16.9962C396.394 17.5356 396.218 18.327 396.218 19.3705C396.218 20.414 396.394 21.2105 396.745 21.7599C397.101 22.3043 397.616 22.5766 398.289 22.5766C398.917 22.5766 399.397 22.3018 399.728 21.7524C400.065 21.2029 400.233 20.4089 400.233 19.3705ZM401.598 23.1285C401.598 24.3989 401.304 25.3617 400.715 26.017C400.127 26.6723 399.261 27 398.118 27C397.742 27 397.349 26.9647 396.938 26.8941C396.528 26.8236 396.117 26.7202 395.706 26.5841V25.2079C396.191 25.4398 396.631 25.6112 397.027 25.7221C397.423 25.833 397.787 25.8885 398.118 25.8885C398.855 25.8885 399.392 25.6843 399.728 25.276C400.065 24.8677 400.233 24.2199 400.233 23.3327V23.2722V22.327C400.015 22.8009 399.718 23.1537 399.342 23.3856C398.966 23.6175 398.509 23.7335 397.97 23.7335C397 23.7335 396.226 23.3377 395.647 22.5463C395.068 21.7549 394.779 20.6963 394.779 19.3705C394.779 18.0397 395.068 16.9786 395.647 16.1871C396.226 15.3957 397 15 397.97 15C398.504 15 398.957 15.1084 399.328 15.3251C399.699 15.5419 400 15.8771 400.233 16.3308V15.2344H401.598V23.1285Z" fill="#25291F"/>
<path d="M405.167 24.0586C405.86 24.0586 406.31 23.9502 406.518 23.7335C406.731 23.5167 406.837 23.0479 406.837 22.327V20.7467C406.837 19.8847 407.015 19.2899 407.371 18.9622C407.728 18.6295 408.386 18.4052 409.345 18.2892C408.356 18.1531 407.69 17.9338 407.349 17.6314C407.008 17.3239 406.837 16.7265 406.837 15.8393V13.8129C406.837 13.097 406.731 12.6307 406.518 12.414C406.31 12.1922 405.86 12.0813 405.167 12.0813H404.648V11H405.123C406.355 11 407.178 11.1865 407.594 11.5595C408.014 11.9275 408.225 12.6686 408.225 13.7826V15.7486C408.225 16.4039 408.361 16.9004 408.633 17.2382C408.91 17.5759 409.397 17.7448 410.095 17.7448H411V18.8261H410.095C409.457 18.8261 408.984 19.0252 408.677 19.4234C408.376 19.8217 408.225 20.2955 408.225 20.845V22.3573C408.225 23.4713 408.014 24.2149 407.594 24.5879C407.178 24.9609 406.355 25.1474 405.123 25.1474H404.648V24.0586H405.167Z" fill="#25291F"/>
</svg>
